<svg xmlns="http://www.w3.org/2000/svg" version="1.1" xmlns:xlink="http://www.w3.org/1999/xlink" xmlns:svgjs="http://svgjs.com/svgjs" width="1000" height="1000"><rect width="1000" height="1000" rx="200" ry="200" fill="#00b274"></rect><g transform="matrix(1.1507479861910241,0,0,1.1507479861910241,-0.5633028159893456,2.7149704032169097)"><svg xmlns="http://www.w3.org/2000/svg" version="1.1" xmlns:xlink="http://www.w3.org/1999/xlink" xmlns:svgjs="http://svgjs.com/svgjs" width="868" height="869"><svg xmlns="http://www.w3.org/2000/svg" fill="none" viewBox="0 0 868 869">
  <g clip-path="url(#a)">
    <path fill="white" d="M601.815 263.172c-4.792-23.962-20.129-33.547-43.133-43.133-22.679-9.449-77.024-20.754-117.128-21.072-40.104.317-94.449 11.623-117.128 21.072-23.004 9.585-38.34 19.17-43.132 43.133l-17.252 132.841v183.044h29.712v28.706c0 35 51.217 35 51.217 0v-28.706h193.164v28.706c0 35 51.217 35 51.217 0v-28.706h29.713V396.013l-17.25-132.841Zm-233.297-30.673H514.59c14.378 0 14.378 21.567 0 21.567H368.517c-14.376 0-14.376-21.567.001-21.567Zm-49.134 289.176c-13.568 0-24.568-11.002-24.568-24.57 0-13.567 11-24.57 24.568-24.57 13.568 0 24.568 11.003 24.568 24.57.002 13.568-11 24.57-24.568 24.57Zm120.445-111.662H309.507c-12.759 0-15.431-9.167-14.177-18.402l13.428-96.349c1.844-11.707 5.813-19.423 21-19.423H553.35c15.188 0 19.155 7.716 20.999 19.423l13.429 96.349c1.252 9.234-1.42 18.402-14.179 18.402h-133.77Zm123.895 111.662c-13.568 0-24.568-11.002-24.568-24.57 0-13.567 11.001-24.57 24.568-24.57 13.567 0 24.568 11.003 24.568 24.57 0 13.568-11 24.57-24.568 24.57Z"></path>
  </g>
  <defs>
    <clipPath id="a">
      <rect width="867.488" height="867.429" fill="white" transform="translate(0 .7852)"></rect>
    </clipPath>
  </defs>
</svg></svg></g></svg>