<svg width="60" height="60" viewBox="0 0 60 60" fill="none" xmlns="http://www.w3.org/2000/svg">
<path d="M45.5832 15.1042C45.1172 12.7761 43.6259 11.8449 41.3891 10.9135C39.1839 9.99547 33.8996 8.89711 30 8.86621C26.1005 8.89701 20.8162 9.99547 18.611 10.9135C16.3742 11.8448 14.883 12.776 14.417 15.1042L12.7395 28.0107V45.7948H15.6286V48.5838C15.6286 51.9843 20.6087 51.9843 20.6087 48.5838V45.7948H29.803H29.8321H39.3912V48.5838C39.3912 51.9843 44.3713 51.9843 44.3713 48.5838V45.7948H47.2605V28.0107L45.5832 15.1042ZM22.8983 12.1241H29.8323H37.1018C38.4998 12.1241 38.4998 14.2195 37.1018 14.2195H29.8152H22.8982C21.5004 14.2195 21.5004 12.1241 22.8983 12.1241ZM18.1207 40.2197C16.8014 40.2197 15.7318 39.1508 15.7318 37.8326C15.7318 36.5144 16.8014 35.4454 18.1207 35.4454C19.44 35.4454 20.5096 36.5144 20.5096 37.8326C20.5098 39.1508 19.44 40.2197 18.1207 40.2197ZM29.8323 29.3709H17.1603C15.9197 29.3709 15.6599 28.4803 15.7818 27.583L17.0875 18.222C17.2668 17.0846 17.6527 16.3349 19.1295 16.3349H29.8153H40.8706C42.3474 16.3349 42.7332 17.0846 42.9125 18.222L44.2183 27.583C44.34 28.4802 44.0802 29.3709 42.8396 29.3709H29.8323ZM41.8793 40.2197C40.5601 40.2197 39.4905 39.1508 39.4905 37.8326C39.4905 36.5144 40.5601 35.4454 41.8793 35.4454C43.1985 35.4454 44.2682 36.5144 44.2682 37.8326C44.2682 39.1508 43.1986 40.2197 41.8793 40.2197Z" fill="white"/>
</svg>
